solid sph_hydro_tank
  facet normal 0 0 1
    outer loop
      vertex -0.04 -0.025 0
      vertex 0.04 -0.025 0
      vertex 0.04 0.025 0
    endloop
  endfacet
  facet normal 0 0 1
    outer loop
      vertex -0.04 -0.025 0
      vertex 0.04 0.025 0
      vertex -0.04 0.025 0
    endloop
  endfacet
  facet normal 1 0 0
    outer loop
      vertex -0.04 -0.025 0
      vertex -0.04 0.025 0
      vertex -0.04 0.025 0.15
    endloop
  endfacet
  facet normal 1 0 0
    outer loop
      vertex -0.04 -0.025 0
      vertex -0.04 0.025 0.15
      vertex -0.04 -0.025 0.15
    endloop
  endfacet
  facet normal -1 0 0
    outer loop
      vertex 0.04 -0.025 0
      vertex 0.04 -0.025 0.15
      vertex 0.04 0.025 0.15
    endloop
  endfacet
  facet normal -1 0 0
    outer loop
      vertex 0.04 -0.025 0
      vertex 0.04 0.025 0.15
      vertex 0.04 0.025 0
    endloop
  endfacet
  facet normal 0 1 0
    outer loop
      vertex -0.04 -0.025 0
      vertex -0.04 -0.025 0.15
      vertex 0.04 -0.025 0.15
    endloop
  endfacet
  facet normal 0 1 0
    outer loop
      vertex -0.04 -0.025 0
      vertex 0.04 -0.025 0.15
      vertex 0.04 -0.025 0
    endloop
  endfacet
  facet normal 0 -1 0
    outer loop
      vertex -0.04 0.025 0
      vertex 0.04 0.025 0
      vertex 0.04 0.025 0.15
    endloop
  endfacet
  facet normal 0 -1 0
    outer loop
      vertex -0.04 0.025 0
      vertex 0.04 0.025 0.15
      vertex -0.04 0.025 0.15
    endloop
  endfacet
endsolid sph_hydro_tank
